<svg width="32" height="32" viewBox="0 0 32 32" fill="none" xmlns="http://www.w3.org/2000/svg">
<path d="M20 17.3333C19.2627 17.3333 18.6667 17.9307 18.6667 18.6667V24C18.6667 24.7347 18.0693 25.3333 17.3333 25.3333H13.3333V5.33333C13.3333 4.19467 12.608 3.17733 11.5173 2.79867L11.1227 2.66667H17.3333C18.0693 2.66667 18.6667 3.26533 18.6667 4V8C18.6667 8.736 19.2627 9.33333 20 9.33333C20.7373 9.33333 21.3333 8.736 21.3333 8V4C21.3333 1.79467 19.5387 0 17.3333 0H3C2.94933 0 2.90667 0.0226667 2.85733 0.0293333C2.79333 0.024 2.732 0 2.66667 0C1.196 0 0 1.196 0 2.66667V26.6667C0 27.8053 0.725333 28.8227 1.816 29.2013L9.84 31.876C10.112 31.96 10.3827 32 10.6667 32C12.1373 32 13.3333 30.804 13.3333 29.3333V28H17.3333C19.5387 28 21.3333 26.2053 21.3333 24V18.6667C21.3333 17.9307 20.7373 17.3333 20 17.3333Z" fill="#2E2C2C"/>
<path d="M31.611 12.3912L26.2776 7.05791C25.8963 6.67658 25.323 6.56191 24.8243 6.76858C24.327 6.97524 24.0016 7.46191 24.0016 8.00058V12.0006H18.6683C17.9323 12.0006 17.335 12.5979 17.335 13.3339C17.335 14.0699 17.9323 14.6672 18.6683 14.6672H24.0016V18.6672C24.0016 19.2059 24.327 19.6926 24.8243 19.8992C25.323 20.1059 25.8963 19.9912 26.2776 19.6099L31.611 14.2766C32.1323 13.7552 32.1323 12.9126 31.611 12.3912Z" fill="#2E2C2C"/>
</svg>
