<svg width="80" height="16" viewBox="0 0 80 16" fill="none" xmlns="http://www.w3.org/2000/svg">
<path d="M37.2215 7.4054C37.2215 9.73037 37.2146 12.0553 37.2285 14.3803C37.2285 14.7204 37.1313 14.8176 36.7982 14.8037C36.1597 14.7829 35.5281 14.7898 34.8896 14.8037C34.6467 14.8106 34.5565 14.7204 34.5704 14.4844C34.5842 14.1027 34.5773 13.721 34.5704 13.3393C34.5704 13.2491 34.5079 13.1588 34.4801 13.0686C34.4107 13.1241 34.3205 13.1658 34.2789 13.2352C33.335 14.6232 31.9331 15.0813 30.3715 15.0743C27.3733 15.0535 25.3329 13.1727 24.8124 10.4313C24.5348 8.96001 24.632 7.50256 25.2774 6.12839C26.1796 4.20595 27.6718 3.10245 29.8163 2.90813C31.1835 2.79014 32.4328 3.08163 33.5293 3.92834C33.7306 4.08102 33.8972 4.28229 34.0845 4.44886C34.154 4.51132 34.2442 4.5599 34.3275 4.61542C34.3552 4.51132 34.4246 4.40722 34.4246 4.30311C34.4316 3.03305 34.4316 1.75605 34.4316 0.485986C34.4316 0.00710986 34.4316 0.00710988 34.8966 0.00710988C35.542 0.00710988 36.1944 0.0209903 36.8398 0.00016965C37.1521 -0.0137108 37.2285 0.0973328 37.2285 0.395763C37.2146 2.73462 37.2215 5.06654 37.2215 7.4054ZM34.5079 8.98083C34.5079 6.91264 33.0227 5.37885 31.0308 5.35803C29.1292 5.34415 27.4566 6.73219 27.4705 8.97389C27.4844 11.2364 29.1709 12.562 30.9961 12.562C33.0019 12.562 34.501 11.0351 34.5079 8.98083Z" fill="#3560EE"/>
<path d="M79.9924 7.44027C79.9924 9.73054 79.9924 12.0208 79.9924 14.3111C79.9924 14.7969 79.9924 14.7969 79.4927 14.7969C78.9166 14.7969 78.3336 14.783 77.7576 14.8039C77.48 14.8108 77.3551 14.7275 77.369 14.436C77.3898 14.0543 77.3759 13.6726 77.369 13.2909C77.369 13.2145 77.3065 13.1382 77.2649 13.0549C77.2024 13.0966 77.1191 13.1313 77.0775 13.1868C76.2655 14.4291 75.0509 14.9218 73.6421 15.0329C71.8792 15.1717 70.3246 14.6859 69.0754 13.4019C68.194 12.4997 67.729 11.3893 67.5485 10.1608C67.3473 8.81443 67.4375 7.48191 68.0135 6.22573C68.9158 4.24776 70.4148 3.08875 72.6218 2.90136C73.8364 2.79726 74.9676 3.0124 75.9879 3.69255C76.3002 3.90075 76.5639 4.19224 76.8554 4.43515C76.9387 4.50455 77.0358 4.54619 77.133 4.60172C77.1677 4.49761 77.2302 4.39351 77.2302 4.28246C77.244 3.78277 77.2371 3.29001 77.2371 2.79032C77.2371 1.97831 77.244 1.17324 77.2302 0.361236C77.2232 0.0905674 77.3134 -0.00659574 77.591 0.000344483C78.2642 0.0142249 78.9305 0.0211652 79.6037 0.000344483C79.9091 -0.00659574 79.9993 0.0975076 79.9993 0.395937C79.9854 2.74867 79.9924 5.09447 79.9924 7.44027ZM73.767 12.5622C75.7796 12.5691 77.3204 11.0075 77.3204 8.96018C77.3204 6.92669 75.7866 5.36514 73.8017 5.3582C71.789 5.3582 70.2691 6.89199 70.2622 8.92548C70.2483 11.0075 71.7474 12.5622 73.767 12.5622Z" fill="#3560EE"/>
<path d="M0.00694023 7.39858C0.00694023 5.0736 0.0138805 2.74862 0 0.423648C0 0.0835769 0.104103 -0.0135863 0.430294 0.000294207C1.07574 0.0211149 1.72812 0.0211149 2.37356 0.000294207C2.70669 -0.0135863 2.81079 0.0835769 2.80385 0.423648C2.78997 2.7278 2.79691 5.02502 2.79691 7.32918C2.79691 7.4194 2.78997 7.51656 2.79691 7.60678C2.81079 7.71783 2.84549 7.82193 2.87325 7.92603C2.96348 7.87051 3.07452 7.82887 3.15086 7.75253C4.24742 6.57963 5.35786 5.41367 6.43359 4.21995C7.37746 3.17892 7.36358 3.16504 8.74469 3.16504C9.38319 3.16504 10.0147 3.16504 10.6532 3.16504C10.7365 3.16504 10.8198 3.20668 10.9031 3.2275C10.8545 3.28996 10.8129 3.35936 10.7574 3.41489C9.27908 4.97644 7.80776 6.54493 6.32255 8.09954C6.10046 8.32857 6.07964 8.47431 6.29479 8.7311C7.93962 10.6744 9.56363 12.6315 11.1946 14.5817C11.2362 14.6303 11.264 14.6928 11.2987 14.7483C11.2362 14.7622 11.1668 14.783 11.1044 14.783C10.0425 14.783 8.97371 14.7969 7.91186 14.7691C7.74529 14.7622 7.53015 14.6164 7.4191 14.4707C6.05188 12.7356 4.69853 10.9936 3.33825 9.25162C3.20639 9.08505 3.03982 8.96013 2.88713 8.81438C2.85937 9.02259 2.80385 9.2308 2.80385 9.439C2.79691 11.0491 2.79691 12.6523 2.79691 14.2625C2.79691 14.783 2.79691 14.783 2.26251 14.783C1.63789 14.783 1.01327 14.7691 0.388653 14.7899C0.0832827 14.8177 0 14.7136 0 14.4082C0.0138805 12.0694 0.00694023 9.73743 0.00694023 7.39858Z" fill="#3560EE"/>
<path d="M23.3125 9.00227C23.3333 12.2572 20.9528 14.7904 17.6562 15.0264C16.2196 15.1305 14.8662 14.9153 13.617 14.1936C11.8472 13.1733 10.8895 11.5979 10.709 9.57831C10.5494 7.80855 10.9936 6.20536 12.2012 4.85895C13.1867 3.7624 14.4498 3.16554 15.8795 2.95039C17.441 2.71442 18.961 2.90181 20.3421 3.69993C22.2159 4.78261 23.2014 6.43438 23.2986 8.59974C23.2986 8.72466 23.3055 8.84264 23.3125 9.00227ZM13.4851 8.94675C13.4851 11.0149 14.9703 12.5557 16.9691 12.5626C18.9887 12.5695 20.5294 11.0288 20.5433 8.98145C20.5572 6.94796 19.0095 5.37253 16.9969 5.36559C14.9911 5.36559 13.4851 6.89938 13.4851 8.94675Z" fill="#3560EE"/>
<path d="M54.0373 10.7431C54.0373 11.9577 54.0303 13.1722 54.0442 14.3867C54.0512 14.699 53.9609 14.817 53.6347 14.8031C53.0795 14.7754 52.5243 14.7754 51.9691 14.8031C51.636 14.817 51.5457 14.6921 51.5666 14.3798C51.5874 14.0675 51.5735 13.7552 51.5666 13.4429C51.5666 13.3596 51.511 13.2763 51.4833 13.193C51.4069 13.2347 51.3098 13.2555 51.2612 13.3179C50.4284 14.5325 49.2069 15.0252 47.805 15.053C46.2573 15.0808 44.8484 14.699 43.8976 13.311C43.1342 12.1936 43.1967 9.88947 44.7721 8.81373C45.6674 8.20299 46.6668 7.89068 47.7217 7.78658C48.8252 7.67553 49.9356 7.66165 51.0391 7.61307C51.5527 7.59225 51.6082 7.52979 51.5666 7.00927C51.4416 5.62817 50.4214 5.05213 49.193 4.94108C47.9576 4.83698 46.8333 5.16317 45.8548 5.93354C45.7784 5.98906 45.5772 5.98906 45.5147 5.93354C45.126 5.57265 44.7582 5.18399 44.3765 4.81616C44.203 4.6496 44.3349 4.55937 44.4459 4.45527C45.1538 3.81677 45.9797 3.38647 46.9027 3.15051C48.381 2.77573 49.8662 2.70633 51.3445 3.17827C52.9338 3.69184 53.8152 4.83698 53.9609 6.46793C54.0859 7.88374 54.0581 9.30649 54.0928 10.7292C54.065 10.7431 54.0512 10.7431 54.0373 10.7431ZM50.2202 9.52164C50.2202 9.51469 50.2202 9.50776 50.2202 9.49387C49.7621 9.52858 49.2971 9.54246 48.8391 9.59798C48.152 9.6882 47.4718 9.827 46.875 10.2157C46.5488 10.4239 46.3267 10.7015 46.2504 11.0901C46.0907 11.8397 46.5141 12.5753 47.3469 12.8113C47.8327 12.9501 48.3741 12.9848 48.8807 12.957C49.8731 12.9015 50.6852 12.499 51.1293 11.5343C51.3931 10.9583 51.3931 10.3475 51.3584 9.72984C51.3514 9.6535 51.2126 9.52858 51.1224 9.52164C50.824 9.50775 50.5186 9.52164 50.2202 9.52164Z" fill="#3560EE"/>
<path d="M55.5069 8.98804C55.5069 7.2044 55.5069 5.4277 55.5069 3.64407C55.5069 3.18601 55.5139 3.17213 55.9719 3.17213C56.5619 3.17213 57.1518 3.18601 57.7417 3.16519C58.054 3.15825 58.1512 3.27623 58.1373 3.57466C58.1165 3.92167 58.1234 4.26869 58.1373 4.6157C58.1442 4.74062 58.2067 4.86555 58.2414 4.99047C58.3247 4.90025 58.4218 4.8239 58.4843 4.72674C59.0326 3.85227 59.7405 3.17907 60.7885 2.9778C62.5513 2.63079 64.5015 3.04027 65.4801 4.74756C65.9381 5.53875 66.0769 6.42016 66.0839 7.31545C66.1047 9.689 66.0839 12.0556 66.0978 14.4292C66.0978 14.7137 66.0145 14.8109 65.723 14.804C65.0775 14.7831 64.4252 14.797 63.7797 14.797C63.3008 14.797 63.3008 14.797 63.3008 14.332C63.3008 12.4026 63.3147 10.4663 63.287 8.53693C63.28 7.95395 63.1898 7.35709 63.0232 6.80187C62.697 5.73307 61.7809 5.21256 60.6705 5.38606C59.2339 5.60815 58.3455 6.60754 58.3247 8.07193C58.2969 10.1609 58.283 12.2569 58.283 14.3459C58.283 14.686 58.1998 14.8178 57.8389 14.804C57.1934 14.7762 56.541 14.7831 55.8956 14.804C55.5833 14.8109 55.5 14.6929 55.5 14.4014C55.5139 12.597 55.5069 10.7925 55.5069 8.98804Z" fill="#3560EE"/>
<path d="M42.0851 7.39868C42.0851 9.72366 42.0782 12.0417 42.0921 14.3667C42.0921 14.6929 42.0157 14.8178 41.6687 14.8039C40.9886 14.7761 40.3084 14.79 39.6213 14.8039C39.3576 14.8108 39.2812 14.7137 39.2812 14.4638C39.2882 9.75836 39.2882 5.05288 39.2812 0.354349C39.2812 0.0628599 39.3923 0.00039782 39.6491 0.00733805C40.3292 0.0212185 41.0163 0.0281587 41.6965 0.00733805C42.0018 0.00039782 42.0921 0.097561 42.0921 0.402931C42.0782 2.72791 42.0851 5.06676 42.0851 7.39868Z" fill="#3560EE"/>
</svg>
