<svg width="20" height="26" viewBox="0 0 20 26" fill="none" xmlns="http://www.w3.org/2000/svg">
<path d="M19.5871 20.691C19.5128 20.6414 18.9536 20.2384 18.3937 19.0194C17.3654 16.7809 17.1496 13.6275 17.1496 11.3763C17.1496 11.3665 17.1494 11.3568 17.1491 11.347C17.1379 8.3718 15.4059 5.80704 12.9275 4.65628V2.89636C12.9275 1.29929 11.6665 0 10.1165 0H9.88351C8.3335 0 7.07247 1.29929 7.07247 2.89636V4.65618C4.58577 5.81064 2.85038 8.3885 2.85038 11.3763C2.85038 13.6275 2.63455 16.7808 1.60629 19.0194C1.04642 20.2384 0.487243 20.6413 0.412896 20.691C0.0998124 20.84 -0.0545576 21.1843 0.0174685 21.5332C0.0901858 21.8856 0.410379 22.1285 0.760043 22.1285H6.18777C6.21808 24.2685 7.916 26 10 26C12.084 26 13.782 24.2685 13.8123 22.1285H19.24C19.5896 22.1285 19.9099 21.8856 19.9826 21.5332C20.0545 21.1843 19.9002 20.84 19.5871 20.691ZM8.55352 2.89636C8.55352 2.14068 9.15017 1.52593 9.88356 1.52593H10.1165C10.8499 1.52593 11.4466 2.14068 11.4466 2.89636V4.16168C10.9792 4.0623 10.4953 4.00999 9.99982 4.00999C9.50448 4.00999 9.02078 4.06225 8.55357 4.16152L8.55352 2.89636ZM10 24.4741C8.73263 24.4741 7.69884 23.4271 7.66877 22.1286H12.3312C12.3012 23.4271 11.2674 24.4741 10 24.4741ZM12.9818 20.6026H2.44765C2.57575 20.3972 2.70613 20.1647 2.83572 19.9019C3.82819 17.8888 4.33143 15.0203 4.33143 11.3763C4.33143 8.15587 6.87426 5.53592 9.99977 5.53592C13.1253 5.53592 15.6681 8.15587 15.6681 11.3788C15.6681 11.3882 15.6683 11.3975 15.6686 11.4069C15.6714 15.0363 16.1746 17.8944 17.1643 19.9019C17.2939 20.1647 17.4243 20.3972 17.5524 20.6026H12.9818Z" fill="black"/>
</svg>
