<svg width="16" height="14" viewBox="0 0 16 14" fill="none"
    xmlns="http://www.w3.org/2000/svg">
    <path d="M13.0286 5.85882H6.4C5.76914 5.85882 5.71429 6.36967 5.71429 7.00167C5.71429 7.63367 5.76914 8.14453 6.4 8.14453H13.0286C13.6594 8.14453 13.7143 7.63367 13.7143 7.00167C13.7143 6.36967 13.6594 5.85882 13.0286 5.85882ZM15.3143 11.5731H6.4C5.76914 11.5731 5.71429 12.084 5.71429 12.716C5.71429 13.348 5.76914 13.8588 6.4 13.8588H15.3143C15.9451 13.8588 16 13.348 16 12.716C16 12.084 15.9451 11.5731 15.3143 11.5731ZM6.4 2.43025H15.3143C15.9451 2.43025 16 1.91939 16 1.28739C16 0.655388 15.9451 0.144531 15.3143 0.144531H6.4C5.76914 0.144531 5.71429 0.655388 5.71429 1.28739C5.71429 1.91939 5.76914 2.43025 6.4 2.43025ZM2.74286 5.85882H0.685714C0.0548571 5.85882 0 6.36967 0 7.00167C0 7.63367 0.0548571 8.14453 0.685714 8.14453H2.74286C3.37371 8.14453 3.42857 7.63367 3.42857 7.00167C3.42857 6.36967 3.37371 5.85882 2.74286 5.85882ZM2.74286 11.5731H0.685714C0.0548571 11.5731 0 12.084 0 12.716C0 13.348 0.0548571 13.8588 0.685714 13.8588H2.74286C3.37371 13.8588 3.42857 13.348 3.42857 12.716C3.42857 12.084 3.37371 11.5731 2.74286 11.5731ZM2.74286 0.144531H0.685714C0.0548571 0.144531 0 0.655388 0 1.28739C0 1.91939 0.0548571 2.43025 0.685714 2.43025H2.74286C3.37371 2.43025 3.42857 1.91939 3.42857 1.28739C3.42857 0.655388 3.37371 0.144531 2.74286 0.144531Z" />
</svg>
