<svg width="100" height="19" viewBox="0 0 100 19" fill="none" xmlns="http://www.w3.org/2000/svg">
<g clip-path="url(#clip0)">
<path d="M46.5246 9.25804C46.5246 12.1643 46.5159 15.0705 46.5333 17.9768C46.5333 18.4019 46.4118 18.5233 45.9954 18.506C45.1973 18.4799 44.4078 18.4886 43.6097 18.506C43.306 18.5146 43.1933 18.4019 43.2106 18.1069C43.228 17.6298 43.2193 17.1526 43.2106 16.6755C43.2106 16.5627 43.1325 16.4499 43.0978 16.3371C43.0111 16.4065 42.8983 16.4586 42.8462 16.5453C41.6664 18.2804 39.914 18.853 37.962 18.8443C34.2143 18.8183 31.6637 16.4673 31.0131 13.0405C30.666 11.2013 30.7875 9.37949 31.5943 7.66177C32.7221 5.2587 34.5873 3.87932 37.268 3.63641C38.977 3.48892 40.5386 3.85329 41.9093 4.91168C42.1609 5.10254 42.3691 5.35413 42.6033 5.56233C42.6901 5.64041 42.8029 5.70114 42.907 5.77054C42.9417 5.64041 43.0284 5.51028 43.0284 5.38015C43.0371 3.79256 43.0371 2.1963 43.0371 0.608708C43.0371 0.0101081 43.0371 0.0101081 43.6184 0.0101081C44.4252 0.0101081 45.2406 0.0274588 46.0475 0.00143278C46.4378 -0.0159179 46.5333 0.122888 46.5333 0.495928C46.5159 3.41952 46.5246 6.33444 46.5246 9.25804ZM43.1325 11.2273C43.1325 8.64208 41.276 6.72483 38.7862 6.69881C36.4091 6.68146 34.3184 8.41653 34.3357 11.2187C34.3531 14.0468 36.4612 15.7038 38.7428 15.7038C41.25 15.7038 43.1239 13.7952 43.1325 11.2273Z" fill="#3860ED"/>
<path d="M99.991 9.30138C99.991 12.1642 99.991 15.0271 99.991 17.89C99.991 18.4973 99.991 18.4973 99.3664 18.4973C98.6463 18.4973 97.9176 18.4799 97.1976 18.5059C96.8506 18.5146 96.6944 18.4105 96.7118 18.0461C96.7378 17.569 96.7204 17.0918 96.7118 16.6147C96.7118 16.5193 96.6337 16.4238 96.5816 16.3197C96.5035 16.3718 96.3994 16.4152 96.3474 16.4846C95.3324 18.0375 93.8142 18.6534 92.0531 18.7922C89.8496 18.9657 87.9063 18.3584 86.3447 16.7535C85.243 15.6257 84.6617 14.2377 84.4362 12.7021C84.1846 11.0191 84.2973 9.35344 85.0174 7.7832C86.1452 5.31072 88.0191 3.86194 90.7778 3.6277C92.296 3.49757 93.7101 3.76651 94.9854 4.61669C95.3757 4.87695 95.7054 5.24132 96.0698 5.54496C96.1739 5.63171 96.2953 5.68376 96.4168 5.75317C96.4602 5.62303 96.5382 5.4929 96.5382 5.3541C96.5556 4.72947 96.5469 4.11352 96.5469 3.4889C96.5469 2.47388 96.5556 1.46754 96.5382 0.452525C96.5296 0.114187 96.6423 -0.00726818 96.9894 0.00140717C97.8309 0.0187579 98.6637 0.0274332 99.5052 0.00140717C99.8869 -0.00726818 99.9997 0.122862 99.9997 0.495902C99.9823 3.43685 99.991 6.36911 99.991 9.30138ZM92.2093 15.7038C94.7251 15.7125 96.651 13.7605 96.651 11.2013C96.651 8.65941 94.7338 6.70745 92.2526 6.69878C89.7368 6.69878 87.8369 8.61603 87.8282 11.1579C87.8109 13.7605 89.6847 15.7038 92.2093 15.7038Z" fill="#3860ED"/>
<path d="M0.00867535 9.24951C0.00867535 6.34327 0.0173507 3.43703 0 0.530785C0 0.105693 0.13013 -0.0157622 0.537872 0.00158847C1.34468 0.0276145 2.16016 0.0276145 2.96697 0.00158847C3.38339 -0.0157622 3.51352 0.105693 3.50484 0.530785C3.48749 3.411 3.49617 6.28254 3.49617 9.16276C3.49617 9.27554 3.48749 9.39699 3.49617 9.50977C3.51352 9.64858 3.55689 9.77871 3.59159 9.90884C3.70437 9.83944 3.84318 9.78738 3.93861 9.69196C5.30931 8.22582 6.69737 6.76836 8.04205 5.2762C9.2219 3.9749 9.20455 3.95755 10.9309 3.95755C11.7291 3.95755 12.5185 3.95755 13.3167 3.95755C13.4208 3.95755 13.5249 4.0096 13.629 4.03563C13.5682 4.11371 13.5162 4.20046 13.4468 4.26986C11.5989 6.22182 9.75977 8.18244 7.90324 10.1257C7.62563 10.412 7.59961 10.5942 7.86854 10.9152C9.9246 13.3443 11.9546 15.7907 13.9933 18.2285C14.0454 18.2892 14.0801 18.3673 14.1235 18.4367C14.0454 18.4541 13.9586 18.4801 13.8806 18.4801C12.5532 18.4801 11.2172 18.4974 9.8899 18.4627C9.68169 18.4541 9.41275 18.2719 9.27395 18.0897C7.5649 15.9209 5.87321 13.7433 4.17284 11.5658C4.00801 11.3576 3.7998 11.2015 3.60894 11.0193C3.57424 11.2795 3.50484 11.5398 3.50484 11.8001C3.49617 13.8127 3.49617 15.8168 3.49617 17.8294C3.49617 18.4801 3.49617 18.4801 2.82816 18.4801C2.04738 18.4801 1.2666 18.4627 0.48582 18.4888C0.104104 18.5235 0 18.3933 0 18.0116C0.0173507 15.088 0.00867535 12.1731 0.00867535 9.24951Z" fill="#3860ED"/>
<path d="M29.1412 11.2539C29.1672 15.3226 26.1916 18.4891 22.0708 18.7841C20.275 18.9142 18.5833 18.6453 17.0217 17.743C14.8095 16.4678 13.6123 14.4985 13.3868 11.9739C13.1872 9.76171 13.7425 7.7577 15.252 6.07469C16.4839 4.70398 18.0628 3.9579 19.8499 3.68896C21.8019 3.394 23.7018 3.62824 25.4281 4.6259C27.7705 5.97926 29.0024 8.04399 29.1238 10.7507C29.1238 10.9069 29.1325 11.0543 29.1412 11.2539ZM16.8569 11.1845C16.8569 13.7697 18.7134 15.6957 21.2119 15.7043C23.7365 15.713 25.6624 13.7871 25.6797 11.2278C25.6971 8.68597 23.7625 6.71666 21.2466 6.70799C18.7395 6.70799 16.8569 8.62524 16.8569 11.1845Z" fill="#3860ED"/>
<path d="M67.5467 13.4302C67.5467 14.9484 67.538 16.4666 67.5554 17.9847C67.5641 18.3751 67.4513 18.5226 67.0435 18.5053C66.3495 18.4706 65.6555 18.4706 64.9614 18.5053C64.545 18.5226 64.4323 18.3665 64.4583 17.9761C64.4843 17.5857 64.467 17.1953 64.4583 16.8049C64.4583 16.7008 64.3889 16.5967 64.3542 16.4926C64.2587 16.5446 64.1373 16.5707 64.0766 16.6487C63.0355 18.1669 61.5087 18.7829 59.7562 18.8176C57.8216 18.8523 56.0606 18.3751 54.872 16.6401C53.9177 15.2433 53.9958 12.3631 55.9651 11.0184C57.0842 10.255 58.3335 9.86462 59.6521 9.73449C61.0315 9.59568 62.4196 9.57833 63.799 9.51761C64.4409 9.49158 64.5103 9.4135 64.4583 8.76285C64.3021 7.03646 63.0268 6.3164 61.4913 6.1776C59.9471 6.04747 58.5417 6.45521 57.3185 7.41817C57.223 7.48757 56.9715 7.48757 56.8934 7.41817C56.4076 6.96705 55.9478 6.48123 55.4706 6.02144C55.2537 5.81323 55.4186 5.70045 55.5574 5.57032C56.4423 4.77219 57.4746 4.23432 58.6285 3.93936C60.4763 3.47089 62.3328 3.38413 64.1807 3.97406C66.1673 4.61603 67.2691 6.04747 67.4513 8.08617C67.6074 9.85594 67.5727 11.6344 67.6161 13.4128C67.5814 13.4302 67.564 13.4302 67.5467 13.4302ZM62.7753 11.9033C62.7753 11.8947 62.7753 11.886 62.7753 11.8686C62.2027 11.912 61.6214 11.9294 61.0489 11.9988C60.19 12.1115 59.3398 12.285 58.5938 12.7709C58.186 13.0311 57.9084 13.3781 57.813 13.864C57.6134 14.8009 58.1426 15.7205 59.1837 16.0154C59.7909 16.1889 60.4676 16.2323 61.1009 16.1976C62.3415 16.1282 63.3565 15.6251 63.9117 14.4192C64.2414 13.6991 64.2414 12.9357 64.198 12.1636C64.1893 12.0682 64.0158 11.912 63.9031 11.9033C63.53 11.886 63.1483 11.9033 62.7753 11.9033Z" fill="#3860ED"/>
<path d="M69.3837 11.2358C69.3837 9.00628 69.3837 6.78539 69.3837 4.55582C69.3837 3.98325 69.3923 3.9659 69.9649 3.9659C70.7023 3.9659 71.4397 3.98325 72.1771 3.95722C72.5675 3.94855 72.689 4.09603 72.6716 4.46907C72.6456 4.90284 72.6543 5.3366 72.6716 5.77037C72.6803 5.92653 72.7584 6.08268 72.8018 6.23884C72.9059 6.12606 73.0273 6.03063 73.1054 5.90918C73.7908 4.81608 74.6756 3.97457 75.9856 3.72299C78.1892 3.28922 80.6269 3.80107 81.8502 5.9352C82.4227 6.92419 82.5963 8.02596 82.6049 9.14508C82.631 12.1121 82.6049 15.0703 82.6223 18.0373C82.6223 18.393 82.5182 18.5145 82.1538 18.5058C81.347 18.4798 80.5315 18.4971 79.7247 18.4971C79.1261 18.4971 79.1261 18.4971 79.1261 17.9159C79.1261 15.5041 79.1435 13.0837 79.1088 10.6719C79.1001 9.94322 78.9873 9.19714 78.7791 8.50311C78.3714 7.1671 77.2262 6.51645 75.8381 6.73334C74.0423 7.01095 72.9319 8.2602 72.9059 10.0907C72.8712 12.702 72.8538 15.3219 72.8538 17.9332C72.8538 18.3583 72.7497 18.5231 72.2986 18.5058C71.4918 18.4711 70.6763 18.4798 69.8695 18.5058C69.4791 18.5145 69.375 18.367 69.375 18.0026C69.3924 15.747 69.3837 13.4914 69.3837 11.2358Z" fill="#3860ED"/>
<path d="M52.6064 9.24964C52.6064 12.1559 52.5978 15.0535 52.6151 17.9597C52.6151 18.3674 52.5197 18.5236 52.0859 18.5062C51.2357 18.4715 50.3855 18.4889 49.5267 18.5062C49.197 18.5149 49.1016 18.3935 49.1016 18.0812C49.1102 12.1993 49.1102 6.31737 49.1016 0.444161C49.1016 0.0797961 49.2404 0.00171791 49.5614 0.0103933C50.4116 0.027744 51.2704 0.0364193 52.1206 0.0103933C52.5023 0.00171791 52.6151 0.123173 52.6151 0.504888C52.5978 3.41113 52.6064 6.33473 52.6064 9.24964Z" fill="#3860ED"/>
</g>
<defs>
<clipPath id="clip0">
<rect width="100" height="18.8444" fill="white"/>
</clipPath>
</defs>
</svg>
