<svg width="140" height="27" viewBox="0 0 140 27" fill="none" xmlns="http://www.w3.org/2000/svg">
<g clip-path="url(#clip0)">
<path d="M65.1344 12.9612C65.1344 17.03 65.1223 21.0987 65.1466 25.1675C65.1466 25.7626 64.9766 25.9326 64.3936 25.9083C63.2762 25.8719 62.1709 25.8841 61.0536 25.9083C60.6285 25.9205 60.4706 25.7626 60.4949 25.3497C60.5192 24.6817 60.507 24.0136 60.4949 23.3456C60.4949 23.1878 60.3855 23.0299 60.337 22.872C60.2155 22.9691 60.0576 23.042 59.9847 23.1635C58.333 25.5926 55.8796 26.3942 53.1468 26.382C47.9 26.3456 44.3292 23.0542 43.4183 18.2567C42.9325 15.6818 43.1025 13.1313 44.232 10.7265C45.8109 7.36218 48.4222 5.43104 52.1752 5.09097C54.5679 4.88449 56.754 5.39461 58.673 6.87636C59.0253 7.14356 59.3167 7.49578 59.6447 7.78727C59.7661 7.89658 59.924 7.9816 60.0698 8.07876C60.1184 7.89658 60.2398 7.71439 60.2398 7.53221C60.252 5.30959 60.252 3.07482 60.252 0.85219C60.252 0.0141513 60.2519 0.0141514 61.0657 0.0141514C62.1952 0.0141514 63.3369 0.0384424 64.4664 0.00200589C65.013 -0.0222851 65.1466 0.172043 65.1466 0.694299C65.1223 4.78733 65.1344 8.86822 65.1344 12.9612ZM60.3856 15.7183C60.3856 12.0989 57.7864 9.41476 54.3007 9.37833C50.9728 9.35404 48.0457 11.7831 48.07 15.7061C48.0943 19.6656 51.0457 21.9853 54.2399 21.9853C57.75 21.9853 60.3734 19.3133 60.3856 15.7183Z" fill="white"/>
<path d="M139.988 13.0227C139.988 17.0307 139.988 21.0387 139.988 25.0467C139.988 25.8969 139.988 25.8969 139.114 25.8969C138.106 25.8969 137.085 25.8726 136.077 25.9091C135.592 25.9212 135.373 25.7755 135.397 25.2654C135.434 24.5974 135.409 23.9294 135.397 23.2614C135.397 23.1278 135.288 22.9942 135.215 22.8484C135.106 22.9213 134.96 22.982 134.887 23.0792C133.466 25.2532 131.341 26.1155 128.875 26.3099C125.79 26.5528 123.07 25.7026 120.883 23.4557C119.341 21.8768 118.527 19.9335 118.211 17.7837C117.859 15.4275 118.017 13.0956 119.025 10.8972C120.604 7.43578 123.227 5.40748 127.09 5.07955C129.215 4.89737 131.195 5.27388 132.98 6.46414C133.527 6.8285 133.988 7.33862 134.499 7.76371C134.644 7.88516 134.814 7.95804 134.984 8.0552C135.045 7.87302 135.154 7.69083 135.154 7.49651C135.179 6.62203 135.167 5.7597 135.167 4.88523C135.167 3.4642 135.179 2.05533 135.154 0.634305C135.142 0.16063 135.3 -0.00940641 135.786 0.00273908C136.964 0.0270301 138.13 0.0391756 139.308 0.00273908C139.843 -0.00940641 140 0.172776 140 0.695032C139.976 4.81235 139.988 8.91753 139.988 13.0227ZM129.094 21.9861C132.616 21.9982 135.312 19.2655 135.312 15.6826C135.312 12.1239 132.628 9.3912 129.154 9.37906C125.632 9.37906 122.972 12.0632 122.96 15.6218C122.936 19.2655 125.559 21.9861 129.094 21.9861Z" fill="white"/>
<path d="M0.0121455 12.9493C0.0121455 8.88058 0.024291 4.81184 0 0.743099C0 0.14797 0.182182 -0.0220671 0.75302 0.00222386C1.88255 0.0386603 3.02423 0.0386603 4.15376 0.00222386C4.73674 -0.0220671 4.91892 0.14797 4.90678 0.743099C4.88249 4.7754 4.89463 8.79556 4.89463 12.8279C4.89463 12.9858 4.88249 13.1558 4.89463 13.3137C4.91892 13.508 4.97965 13.6902 5.02823 13.8724C5.18612 13.7752 5.38045 13.7023 5.51405 13.5687C7.43304 11.5161 9.37632 9.47571 11.2589 7.38668C12.9107 5.56486 12.8864 5.54057 15.3033 5.54057C16.4207 5.54057 17.5259 5.54057 18.6433 5.54057C18.7891 5.54057 18.9348 5.61344 19.0806 5.64988C18.9955 5.75919 18.9227 5.88064 18.8255 5.97781C16.2385 8.71054 13.6637 11.4554 11.0645 14.176C10.6759 14.5768 10.6394 14.8319 11.016 15.2813C13.8944 18.682 16.7365 22.107 19.5907 25.5199C19.6635 25.6049 19.7121 25.7142 19.7729 25.8114C19.6635 25.8357 19.5421 25.8721 19.4328 25.8721C17.5745 25.8721 15.7041 25.8964 13.8459 25.8478C13.5544 25.8357 13.1779 25.5806 12.9835 25.3256C10.5909 22.2892 8.2225 19.2407 5.84198 16.1922C5.61122 15.9007 5.31972 15.6821 5.05252 15.427C5.00394 15.7914 4.90678 16.1557 4.90678 16.5201C4.89463 19.3378 4.89463 22.1435 4.89463 24.9612C4.89463 25.8721 4.89463 25.8721 3.95943 25.8721C2.86634 25.8721 1.77324 25.8478 0.680147 25.8843C0.145746 25.9328 0 25.7507 0 25.2163C0.024291 21.1232 0.0121455 17.0423 0.0121455 12.9493Z" fill="white"/>
<path d="M40.7975 15.7548C40.8339 21.451 36.668 25.8841 30.8989 26.2971C28.3848 26.4793 26.0164 26.1027 23.8302 24.8396C20.7331 23.0542 19.0571 20.2972 18.7413 16.7629C18.4619 13.6658 19.2392 10.8602 21.3526 8.50393C23.0772 6.58494 25.2877 5.54043 27.7897 5.16392C30.5224 4.75097 33.1823 5.0789 35.5992 6.47563C38.8785 8.37033 40.6032 11.261 40.7732 15.0503C40.7732 15.269 40.7853 15.4754 40.7975 15.7548ZM23.5995 15.6576C23.5995 19.277 26.1986 21.9733 29.6965 21.9854C33.2308 21.9976 35.9271 19.3013 35.9514 15.7183C35.9757 12.1597 33.2673 9.40269 29.7451 9.39055C26.235 9.39055 23.5995 12.0747 23.5995 15.6576Z" fill="white"/>
<path d="M94.5654 18.8024C94.5654 20.9279 94.5532 23.0534 94.5775 25.1788C94.5897 25.7254 94.4318 25.9319 93.8609 25.9076C92.8893 25.859 91.9177 25.859 90.946 25.9076C90.363 25.9319 90.2052 25.7132 90.2416 25.1667C90.278 24.6201 90.2537 24.0736 90.2416 23.527C90.2416 23.3813 90.1444 23.2356 90.0958 23.0898C89.9622 23.1627 89.7922 23.1991 89.7072 23.3084C88.2497 25.4339 86.1121 26.2962 83.6587 26.3448C80.9503 26.3934 78.4848 25.7254 76.8208 23.2963C75.4848 21.3409 75.5941 17.3086 78.3512 15.426C79.9179 14.3572 81.6669 13.8107 83.513 13.6285C85.4441 13.4341 87.3874 13.4099 89.3185 13.3248C90.2173 13.2884 90.3145 13.1791 90.2416 12.2682C90.023 9.85122 88.2376 8.84315 86.0878 8.64882C83.9259 8.46664 81.9584 9.03747 80.2459 10.3856C80.1123 10.4828 79.76 10.4828 79.6507 10.3856C78.9706 9.75406 78.3269 9.07391 77.6589 8.4302C77.3552 8.13871 77.586 7.98082 77.7803 7.79863C79.0192 6.68125 80.4645 5.92823 82.0798 5.51528C84.6668 4.85943 87.2659 4.73797 89.8529 5.56386C92.6342 6.46263 94.1767 8.46664 94.4318 11.3208C94.6504 13.7985 94.6018 16.2883 94.6625 18.7782C94.614 18.8024 94.5897 18.8024 94.5654 18.8024ZM87.8854 16.6648C87.8854 16.6527 87.8854 16.6406 87.8854 16.6163C87.0838 16.677 86.27 16.7013 85.4684 16.7984C84.266 16.9563 83.0758 17.1992 82.0313 17.8794C81.4604 18.2438 81.0718 18.7296 80.9382 19.4097C80.6588 20.7214 81.3997 22.0089 82.8571 22.4218C83.7073 22.6647 84.6547 22.7254 85.5413 22.6769C87.2781 22.5797 88.6991 21.8753 89.4764 20.187C89.938 19.179 89.938 18.1102 89.8772 17.0292C89.8651 16.8956 89.6222 16.677 89.4643 16.6648C88.942 16.6406 88.4076 16.6648 87.8854 16.6648Z" fill="white"/>
<path d="M97.1371 15.7302C97.1371 12.6088 97.1371 9.49955 97.1371 6.37816C97.1371 5.57656 97.1493 5.55227 97.9509 5.55227C98.9833 5.55227 100.016 5.57656 101.048 5.54012C101.595 5.52798 101.765 5.73445 101.74 6.25671C101.704 6.86398 101.716 7.47126 101.74 8.07853C101.752 8.29715 101.862 8.51577 101.922 8.73439C102.068 8.5765 102.238 8.4429 102.348 8.27286C103.307 6.74253 104.546 5.56442 106.38 5.2122C109.465 4.60492 112.878 5.32151 114.59 8.3093C115.392 9.69388 115.635 11.2364 115.647 12.8031C115.683 16.9569 115.647 21.0985 115.671 25.2523C115.671 25.7502 115.525 25.9203 115.015 25.9081C113.886 25.8717 112.744 25.896 111.615 25.896C110.777 25.896 110.777 25.896 110.777 25.0822C110.777 21.7058 110.801 18.3172 110.752 14.9407C110.74 13.9205 110.582 12.876 110.291 11.9044C109.72 10.034 108.117 9.12304 106.173 9.42668C103.659 9.81534 102.105 11.5643 102.068 14.127C102.02 17.7828 101.995 21.4507 101.995 25.1065C101.995 25.7016 101.85 25.9324 101.218 25.9081C100.089 25.8595 98.9468 25.8717 97.8173 25.9081C97.2707 25.9203 97.125 25.7138 97.125 25.2037C97.1493 22.0458 97.1371 18.888 97.1371 15.7302Z" fill="white"/>
<path d="M73.648 12.9494C73.648 17.0182 73.6359 21.0748 73.6602 25.1435C73.6602 25.7143 73.5266 25.933 72.9193 25.9087C71.729 25.8601 70.5388 25.8844 69.3363 25.9087C68.8748 25.9208 68.7412 25.7508 68.7412 25.3135C68.7534 17.0789 68.7534 8.84426 68.7412 0.621764C68.7412 0.111653 68.9355 0.00234405 69.3849 0.0144895C70.5752 0.0387805 71.7776 0.050926 72.9679 0.0144895C73.5023 0.00234405 73.6602 0.172381 73.6602 0.706783C73.6359 4.77552 73.648 8.86855 73.648 12.9494Z" fill="white"/>
</g>
<defs>
<clipPath id="clip0">
<rect width="140" height="26.3822" fill="white"/>
</clipPath>
</defs>
</svg>
