<svg width="16" height="16" viewBox="0 0 16 16" fill="none" xmlns="http://www.w3.org/2000/svg">
<g clip-path="url(#clip0)">
<path d="M0.666016 2.66797V6.66797H4.66602" stroke="#3560EE" stroke-width="2" stroke-linecap="round" stroke-linejoin="round"/>
<path d="M15.334 13.332V9.33203H11.334" stroke="#3560EE" stroke-width="2" stroke-linecap="round" stroke-linejoin="round"/>
<path d="M13.6593 5.99842C13.3212 5.04295 12.7466 4.18869 11.989 3.51537C11.2315 2.84205 10.3157 2.3716 9.32716 2.14793C8.33861 1.92426 7.30951 1.95465 6.33589 2.23627C5.36226 2.51789 4.47585 3.04157 3.75935 3.75842L0.666016 6.66509M15.3327 9.33175L12.2393 12.2384C11.5229 12.9553 10.6364 13.479 9.66281 13.7606C8.68918 14.0422 7.66009 14.0726 6.67154 13.8489C5.68299 13.6252 4.76722 13.1548 4.00966 12.4815C3.2521 11.8082 2.67746 10.9539 2.33935 9.99842" stroke="#3560EE" stroke-width="2" stroke-linecap="round" stroke-linejoin="round"/>
</g>
<defs>
<clipPath id="clip0">
<rect width="16" height="16" fill="white"/>
</clipPath>
</defs>
</svg>
