<svg width="22" height="22" viewBox="0 0 22 22" fill="none"
    xmlns="http://www.w3.org/2000/svg">
    <path d="M18.782 8.00037H14.388L15.251 5.40837C15.5185 4.59911 15.5136 3.7245 15.2369 2.91832C14.9602 2.11215 14.4271 1.41881 13.719 0.944365C13.189 0.595916 12.5445 0.466851 11.9212 0.584378C11.298 0.701906 10.7447 1.05684 10.378 1.57437L5.685 8.27437C5.50033 8.09845 5.25505 8.00034 5 8.00037H1C0.734784 8.00037 0.48043 8.10572 0.292893 8.29326C0.105357 8.48079 0 8.73515 0 9.00037V21.0004C0 21.2656 0.105357 21.5199 0.292893 21.7075C0.48043 21.895 0.734784 22.0004 1 22.0004H5C5.26522 22.0004 5.51957 21.895 5.70711 21.7075C5.89464 21.5199 6 21.2656 6 21.0004V20.8684L7.445 21.8324C7.6095 21.9416 7.80252 22.0001 8 22.0004H17C17.1858 22.0005 17.368 21.9488 17.5261 21.8511C17.6842 21.7534 17.8119 21.6136 17.895 21.4474L21.553 14.1304C21.846 13.5419 21.999 12.8937 22 12.2364V11.2184C21.9989 10.3652 21.6596 9.54733 21.0563 8.94407C20.453 8.3408 19.6351 8.00142 18.782 8.00037ZM4 20.0004H2V10.0004H4V20.0004ZM20 12.2364C19.9993 12.5834 19.9186 12.9256 19.764 13.2364L16.382 20.0004H8.3L6 18.4654V11.3154L12.017 2.72037C12.0813 2.62758 12.1796 2.56382 12.2906 2.54287C12.4015 2.52191 12.5162 2.54544 12.61 2.60837C12.954 2.83867 13.213 3.17539 13.3474 3.56696C13.4818 3.95853 13.4841 4.38336 13.354 4.77637L12.054 8.68437C12.004 8.83446 11.9903 8.99427 12.0141 9.15067C12.0379 9.30707 12.0984 9.4556 12.1908 9.58406C12.2831 9.71251 12.4046 9.81722 12.5453 9.8896C12.686 9.96197 12.8418 9.99993 13 10.0004H18.782C19.105 10.0006 19.4146 10.129 19.643 10.3574C19.8713 10.5858 19.9997 10.8954 20 11.2184V12.2364Z" fill="#3860ED"/>
</svg>
