<svg width="12" height="12" viewBox="0 0 12 12" fill="none"
    xmlns="http://www.w3.org/2000/svg">
    <g clip-path="url(#clip0_7797_49746)">
        <path fill-rule="evenodd" clip-rule="evenodd" d="M11.4003 0.607919C11.066 0.273633 10.526 0.273633 10.1918 0.607919L6.00032 4.79078L1.8089 0.599347C1.47461 0.265061 0.934609 0.265061 0.600324 0.599347C0.266038 0.933633 0.266038 1.47363 0.600324 1.80792L4.79175 5.99935L0.600324 10.1908C0.266038 10.5251 0.266038 11.0651 0.600324 11.3993C0.934609 11.7336 1.47461 11.7336 1.8089 11.3993L6.00032 7.20792L10.1918 11.3993C10.526 11.7336 11.066 11.7336 11.4003 11.3993C11.7346 11.0651 11.7346 10.5251 11.4003 10.1908L7.2089 5.99935L11.4003 1.80792C11.726 1.4822 11.726 0.933633 11.4003 0.607919Z" fill="white"/>
    </g>
    <defs>
        <clipPath id="clip0_7797_49746">
            <rect width="12" height="12" fill="white"/>
        </clipPath>
    </defs>
</svg>
