<svg width="20" height="20" viewBox="0 0 20 20" fill="none" xmlns="http://www.w3.org/2000/svg">
<path d="M16.4837 7.50047H12.822L13.5412 5.34047C13.7641 4.66609 13.76 3.93724 13.5294 3.26543C13.2989 2.59362 12.8546 2.01584 12.2645 1.62047C11.8229 1.33009 11.2858 1.22254 10.7664 1.32048C10.247 1.41842 9.78592 1.7142 9.48036 2.14547L5.56953 7.7288C5.41564 7.58221 5.21124 7.50045 4.9987 7.50047H1.66536C1.44435 7.50047 1.23239 7.58827 1.07611 7.74455C0.919829 7.90083 0.832031 8.11279 0.832031 8.3338V18.3338C0.832031 18.5548 0.919829 18.7668 1.07611 18.9231C1.23239 19.0793 1.44435 19.1671 1.66536 19.1671H4.9987C5.21971 19.1671 5.43167 19.0793 5.58795 18.9231C5.74423 18.7668 5.83203 18.5548 5.83203 18.3338V18.2238L7.0362 19.0271C7.17328 19.1182 7.33413 19.1669 7.4987 19.1671H14.9987C15.1536 19.1672 15.3054 19.1241 15.4371 19.0427C15.5689 18.9613 15.6753 18.8448 15.7445 18.7063L18.7929 12.6088C19.037 12.1184 19.1645 11.5783 19.1654 11.0305V10.1821C19.1645 9.47118 18.8817 8.7896 18.379 8.28688C17.8762 7.78417 17.1947 7.50135 16.4837 7.50047ZM4.16536 17.5005H2.4987V9.16713H4.16536V17.5005ZM17.4987 11.0305C17.4981 11.3197 17.4308 11.6049 17.302 11.8638L14.4837 17.5005H7.7487L5.83203 16.2213V10.263L10.8462 3.10047C10.8998 3.02314 10.9817 2.97001 11.0742 2.95255C11.1666 2.93509 11.2622 2.95469 11.3404 3.00713C11.627 3.19905 11.8429 3.47965 11.9549 3.80596C12.0669 4.13227 12.0688 4.48629 11.9604 4.8138L10.877 8.07047C10.8354 8.19555 10.824 8.32872 10.8438 8.45906C10.8636 8.58939 10.9141 8.71317 10.991 8.82021C11.068 8.92726 11.1692 9.01452 11.2864 9.07483C11.4037 9.13514 11.5335 9.16677 11.6654 9.16713H16.4837C16.7528 9.16736 17.0109 9.27436 17.2012 9.46467C17.3915 9.65497 17.4985 9.91301 17.4987 10.1821V11.0305Z" fill="#141F43"/>
</svg>
