<svg width="20" height="20" viewBox="0 0 20 20" fill="none" xmlns="http://www.w3.org/2000/svg">
<path d="M16.4837 13.7847H12.822L13.5412 15.9447C13.7641 16.6191 13.76 17.3479 13.5294 18.0197C13.2989 18.6915 12.8546 19.2693 12.2645 19.6647C11.8229 19.9551 11.2858 20.0626 10.7664 19.9647C10.247 19.8667 9.78592 19.571 9.48036 19.1397L5.56953 13.5564C5.41564 13.7029 5.21124 13.7847 4.9987 13.7847H1.66536C1.44435 13.7847 1.23239 13.6969 1.07611 13.5406C0.919829 13.3843 0.832031 13.1724 0.832031 12.9514V2.95135C0.832031 2.73034 0.919829 2.51837 1.07611 2.36209C1.23239 2.20581 1.44435 2.11802 1.66536 2.11802H4.9987C5.21971 2.11802 5.43167 2.20581 5.58795 2.36209C5.74423 2.51837 5.83203 2.73034 5.83203 2.95135V3.06135L7.0362 2.25801C7.17328 2.16697 7.33413 2.11828 7.4987 2.11802H14.9987C15.1536 2.11794 15.3054 2.16102 15.4371 2.24242C15.5689 2.32382 15.6753 2.44032 15.7445 2.57885L18.7929 8.67635C19.037 9.16672 19.1645 9.70689 19.1654 10.2547V11.103C19.1645 11.814 18.8817 12.4956 18.379 12.9983C17.8762 13.501 17.1947 13.7838 16.4837 13.7847ZM4.16536 3.78468H2.4987V12.118H4.16536V3.78468ZM17.4987 10.2547C17.4981 9.96548 17.4308 9.68029 17.302 9.42135L14.4837 3.78468H7.7487L5.83203 5.06385V11.0222L10.8462 18.1847C10.8998 18.262 10.9817 18.3151 11.0742 18.3326C11.1666 18.3501 11.2622 18.3305 11.3404 18.278C11.627 18.0861 11.8429 17.8055 11.9549 17.4792C12.0669 17.1529 12.0688 16.7989 11.9604 16.4714L10.877 13.2147C10.8354 13.0896 10.824 12.9564 10.8438 12.8261C10.8636 12.6958 10.9141 12.572 10.991 12.4649C11.068 12.3579 11.1692 12.2706 11.2864 12.2103C11.4037 12.15 11.5335 12.1184 11.6654 12.118H16.4837C16.7528 12.1178 17.0109 12.0108 17.2012 11.8205C17.3915 11.6302 17.4985 11.3721 17.4987 11.103V10.2547Z" fill="#141F43"/>
</svg>
