<svg width="24" height="24" viewBox="0 0 24 24" fill="none"
    xmlns="http://www.w3.org/2000/svg">
    <g clip-path="url(#clip0)">
        <path d="M12 0C9.62663 0 7.30655 0.703788 5.33316 2.02236C3.35977 3.34094 1.8217 5.21509 0.913451 7.4078C0.00519941 9.60051 -0.232441 12.0133 0.230582 14.3411C0.693605 16.6689 1.83649 18.8071 3.51472 20.4853C5.19295 22.1635 7.33115 23.3064 9.65892 23.7694C11.9867 24.2324 14.3995 23.9948 16.5922 23.0866C18.7849 22.1783 20.6591 20.6402 21.9776 18.6668C23.2962 16.6935 24 14.3734 24 12C24 10.4241 23.6896 8.86371 23.0866 7.4078C22.4835 5.95189 21.5996 4.62902 20.4853 3.51472C19.371 2.40042 18.0481 1.5165 16.5922 0.913446C15.1363 0.310389 13.5759 0 12 0ZM15.252 13.548C15.3645 13.6596 15.4538 13.7923 15.5147 13.9385C15.5756 14.0847 15.607 14.2416 15.607 14.4C15.607 14.5584 15.5756 14.7153 15.5147 14.8615C15.4538 15.0077 15.3645 15.1404 15.252 15.252C15.1405 15.3645 15.0077 15.4537 14.8615 15.5147C14.7153 15.5756 14.5584 15.607 14.4 15.607C14.2416 15.607 14.0847 15.5756 13.9385 15.5147C13.7923 15.4537 13.6596 15.3645 13.548 15.252L12 13.692L10.452 15.252C10.3405 15.3645 10.2077 15.4537 10.0615 15.5147C9.91527 15.5756 9.75842 15.607 9.60001 15.607C9.44159 15.607 9.28474 15.5756 9.13851 15.5147C8.99228 15.4537 8.85956 15.3645 8.74801 15.252C8.63553 15.1404 8.54626 15.0077 8.48534 14.8615C8.42441 14.7153 8.39305 14.5584 8.39305 14.4C8.39305 14.2416 8.42441 14.0847 8.48534 13.9385C8.54626 13.7923 8.63553 13.6596 8.74801 13.548L10.308 12L8.74801 10.452C8.52204 10.226 8.3951 9.91956 8.3951 9.6C8.3951 9.28044 8.52204 8.97396 8.74801 8.748C8.97397 8.52204 9.28044 8.39509 9.60001 8.39509C9.91957 8.39509 10.226 8.52204 10.452 8.748L12 10.308L13.548 8.748C13.774 8.52204 14.0804 8.39509 14.4 8.39509C14.7196 8.39509 15.026 8.52204 15.252 8.748C15.478 8.97396 15.6049 9.28044 15.6049 9.6C15.6049 9.91956 15.478 10.226 15.252 10.452L13.692 12L15.252 13.548Z" fill="white"/>
    </g>
    <defs>
        <clipPath id="clip0">
            <rect width="24" height="24" fill="white"/>
        </clipPath>
    </defs>
</svg>
