<svg width="24" height="24" viewBox="0 0 24 24" fill="none" xmlns="http://www.w3.org/2000/svg">
<g opacity="0.5" clip-path="url(#clip0)">
<path d="M12 16C9.8 16 8 14.2 8 12C8 9.8 9.8 8 12 8C14.2 8 16 9.8 16 12C16 14.2 14.2 16 12 16ZM12 10C10.9 10 10 10.9 10 12C10 13.1 10.9 14 12 14C13.1 14 14 13.1 14 12C14 10.9 13.1 10 12 10Z" fill="#141F43"/>
<path d="M12.0002 20C4.5002 20 0.300195 12.8 0.100195 12.5C-0.0998047 12.2 -0.0998047 11.8 0.100195 11.5C0.300195 11.2 4.5002 4 12.0002 4C19.5002 4 23.7002 11.2 23.9002 11.5C24.1002 11.8 24.1002 12.2 23.9002 12.5C23.7002 12.8 19.5002 20 12.0002 20ZM2.2002 12C3.2002 13.5 6.7002 18 12.0002 18C17.3002 18 20.8002 13.5 21.8002 12C20.8002 10.5 17.3002 6 12.0002 6C6.7002 6 3.2002 10.5 2.2002 12Z" fill="#141F43"/>
</g>
<defs>
<clipPath id="clip0">
<rect width="24" height="24" fill="white"/>
</clipPath>
</defs>
</svg>
