<svg width="28" height="16" viewBox="0 0 28 16" fill="none" xmlns="http://www.w3.org/2000/svg">
<path fill-rule="evenodd" clip-rule="evenodd" d="M13.6981 15.5935H15.3109C15.3109 15.5935 15.7813 15.5263 16.0501 15.2575C16.2853 15.0223 16.2853 14.5519 16.2853 14.5519C16.2853 14.5519 16.2517 12.4015 17.2597 12.0655C18.2341 11.7631 19.5109 14.1487 20.8549 15.0559C21.8629 15.7615 22.6357 15.5935 22.6357 15.5935L26.2309 15.5599C26.2309 15.5599 28.1125 15.4591 27.2053 13.9807C27.1381 13.8463 26.7013 12.8719 24.5509 10.8895C22.2997 8.80626 22.6021 9.14226 25.3237 5.51346C26.9701 3.32945 27.6421 1.98545 27.4405 1.38065C27.2389 0.84305 26.0293 0.977451 26.0293 0.977451L21.9973 1.01105C21.9973 1.01105 21.6949 0.977451 21.4597 1.11185C21.1909 1.27985 21.0565 1.58225 21.0565 1.58225C21.0565 1.58225 20.4181 3.29585 19.5781 4.74065C17.7637 7.79826 17.0581 7.96626 16.7557 7.76466C16.0837 7.32786 16.2517 5.98386 16.2517 5.04306C16.2517 2.08625 16.6885 0.84305 15.3781 0.54065C14.9413 0.43985 14.6053 0.37265 13.4965 0.33905C12.0517 0.33905 10.8421 0.33905 10.1365 0.675051C9.66609 0.910251 9.33009 1.41425 9.53169 1.41425C9.80049 1.44785 10.4053 1.58225 10.7077 2.01905C11.1109 2.59025 11.1109 3.83345 11.1109 3.83345C11.1109 3.83345 11.3461 7.32786 10.5397 7.76466C10.0021 8.06706 9.26289 7.46226 7.65009 4.67345C6.84369 3.26225 6.20529 1.68305 6.20529 1.68305C6.20529 1.68305 6.07089 1.38065 5.86929 1.24625C5.70129 1.11185 5.36529 1.01105 4.99569 1.01105L1.40049 1.04465C1.40049 1.04465 0.829286 1.04465 0.627686 1.31345C0.426086 1.54865 0.627686 1.98545 0.627686 1.98545C0.627686 1.98545 3.65169 9.00786 7.04529 12.5359C10.1701 15.8287 13.6981 15.5935 13.6981 15.5935Z" fill="white"/>
</svg>
