<svg width="16" height="28" viewBox="0 0 16 28" fill="none" xmlns="http://www.w3.org/2000/svg">
<path d="M4.77419 15.7472C4.67339 15.7472 2.45579 15.7472 1.44779 15.7472C0.910188 15.7472 0.742188 15.5456 0.742188 15.0416C0.742188 13.6976 0.742188 12.32 0.742188 10.976C0.742188 10.4384 0.943788 10.2704 1.44779 10.2704H4.77419C4.77419 10.1696 4.77419 8.22083 4.77419 7.31363C4.77419 5.96963 5.00939 4.69283 5.68139 3.51683C6.38699 2.30723 7.39499 1.50083 8.67179 1.03043C9.51179 0.728028 10.3518 0.593628 11.259 0.593628H14.5518C15.0222 0.593628 15.2238 0.795228 15.2238 1.26563V5.09603C15.2238 5.56643 15.0222 5.76803 14.5518 5.76803C13.6446 5.76803 12.7374 5.76803 11.8302 5.80163C10.923 5.80163 10.4526 6.23843 10.4526 7.17923C10.419 8.18723 10.4526 9.16163 10.4526 10.2032H14.3502C14.8878 10.2032 15.0894 10.4048 15.0894 10.9424V15.008C15.0894 15.5456 14.9214 15.7136 14.3502 15.7136C13.1406 15.7136 10.5534 15.7136 10.4526 15.7136V26.6672C10.4526 27.2384 10.2846 27.44 9.67978 27.44C8.26859 27.44 6.89099 27.44 5.47979 27.44C4.97579 27.44 4.77419 27.2384 4.77419 26.7344C4.77419 23.2064 4.77419 15.848 4.77419 15.7472Z" fill="white"/>
</svg>
