<svg width="14" height="27" viewBox="0 0 14 27" fill="none" xmlns="http://www.w3.org/2000/svg">
<path d="M12.3427 0.200012H8.59173C4.79153 0.200012 0.957098 3.00617 0.957098 9.27534C0.957098 12.5226 2.33345 15.0517 4.8563 16.49L0.238606 24.8479C0.0197332 25.2431 0.0140403 25.6911 0.223343 26.0462C0.427695 26.3929 0.801255 26.6 1.22258 26.6H3.55824C4.08888 26.6 4.5027 26.3435 4.70103 25.8942L9.03055 17.426H9.34653V25.5446C9.34653 26.1167 9.82932 26.6 10.4007 26.6H12.4413C13.0821 26.6 13.5296 26.1525 13.5296 25.5118V1.35518C13.5297 0.675047 13.0416 0.200012 12.3427 0.200012ZM9.34661 13.6643H8.78924C6.62798 13.6643 5.33768 11.9002 5.33768 8.94518C5.33768 5.27087 6.96764 3.96176 8.49306 3.96176H9.34661V13.6643Z" fill="white"/>
</svg>
